<?xml version="1.0" standalone="no"?>
<!DOCTYPE svg PUBLIC "-//W3C//DTD SVG 20010904//EN"
 "http://www.w3.org/TR/2001/REC-SVG-20010904/DTD/svg10.dtd">
<svg version="1.0" xmlns="http://www.w3.org/2000/svg"
 width="1000.000000pt" height="1000.000000pt" viewBox="0 0 1000.000000 1000.000000"
 preserveAspectRatio="xMidYMid meet">

<g transform="translate(0.000000,1000.000000) scale(0.100000,-0.100000)"
fill="#000000" stroke="none">
<path d="M4830 7932 l-25 -8 -3 -966 -2 -966 36 -12 c44 -15 157 -8 179 10 13
11 15 133 15 965 0 870 -1 954 -16 966 -19 15 -144 22 -184 11z"/>
<path d="M1591 7820 c-148 -20 -281 -83 -350 -166 -17 -21 -46 -68 -64 -104
-28 -59 -32 -76 -35 -176 -5 -136 9 -192 71 -284 67 -101 144 -156 383 -274
297 -148 357 -207 356 -355 -1 -186 -141 -301 -366 -301 -94 0 -208 33 -331
95 -60 30 -118 55 -128 55 -26 0 -39 -46 -35 -117 5 -77 24 -106 98 -145 261
-135 617 -122 821 32 187 140 254 412 151 615 -64 127 -134 182 -429 330 -174
87 -222 116 -267 160 -88 87 -110 200 -57 303 79 155 334 179 568 51 93 -50
109 -50 124 0 18 60 4 142 -29 174 -77 74 -323 128 -481 107z"/>
<path d="M2602 7644 c-21 -15 -22 -21 -22 -170 l0 -154 -88 0 c-119 0 -127 -7
-127 -100 0 -93 8 -100 127 -100 l88 0 0 -387 c0 -387 7 -486 36 -575 21 -65
91 -140 156 -168 105 -47 338 -34 392 20 16 15 20 34 20 89 1 90 -8 100 -72
81 -26 -8 -75 -16 -109 -18 -84 -5 -125 15 -155 76 -23 46 -23 52 -26 465 l-3
417 158 0 c184 0 197 5 207 72 7 47 -6 107 -26 120 -7 4 -86 8 -175 8 l-163 0
0 150 c0 188 -1 190 -118 190 -54 0 -84 -5 -100 -16z"/>
<path d="M5816 7324 c-140 -34 -283 -146 -350 -274 -98 -188 -120 -459 -56
-690 56 -200 193 -332 400 -386 141 -37 412 -15 574 46 86 33 96 47 96 129 0
99 -7 102 -125 57 -154 -58 -293 -77 -425 -55 -197 32 -293 153 -313 397 l-4
52 426 0 c405 0 428 1 458 20 40 24 48 62 39 174 -7 102 -36 218 -72 287 -58
116 -198 220 -332 248 -72 15 -244 12 -316 -5z m267 -178 c124 -37 204 -148
214 -297 l6 -79 -342 0 -341 0 0 40 c0 59 37 161 79 216 39 53 114 108 165
123 48 14 168 13 219 -3z"/>
<path d="M3343 7313 c-7 -2 -13 -18 -13 -33 0 -33 455 -1257 476 -1281 8 -8
14 -20 14 -26 0 -5 -38 -107 -85 -225 -47 -119 -85 -225 -85 -237 0 -30 30
-41 108 -41 86 0 126 13 142 48 34 75 630 1738 630 1759 0 35 -20 43 -112 43
-71 0 -91 -3 -105 -18 -10 -10 -96 -248 -192 -530 -96 -282 -177 -509 -181
-505 -4 4 -89 238 -189 518 -104 293 -188 515 -198 523 -17 12 -183 16 -210 5z"/>
<path d="M7934 6896 l-34 -34 0 -136 0 -136 -27 -6 c-259 -57 -446 -201 -563
-433 -44 -88 -68 -191 -76 -325 l-7 -114 -41 -6 c-106 -16 -207 -94 -255 -195
l-26 -56 0 -260 0 -260 108 -3 107 -3 0 232 c0 259 5 285 65 313 18 9 35 16
38 16 3 0 7 -116 9 -257 l3 -258 28 -60 c65 -140 180 -205 359 -205 l77 0 16
-34 c29 -61 84 -114 153 -148 57 -28 77 -33 142 -33 65 0 85 5 142 33 69 34
124 87 153 148 l16 34 77 0 c179 0 294 66 359 205 28 60 28 60 31 318 2 141 6
257 9 257 3 0 20 -7 38 -16 60 -28 65 -54 65 -313 l0 -232 108 3 107 3 0 260
0 260 -26 56 c-48 101 -149 179 -255 195 l-41 6 -7 114 c-8 134 -32 237 -77
325 -117 233 -303 376 -561 433 l-28 6 0 136 0 136 -34 34 c-28 28 -42 34 -76
34 -34 0 -48 -6 -76 -34z m206 -537 c234 -53 419 -282 420 -517 0 -59 -2 -66
-34 -98 l-34 -34 -482 0 -482 0 -34 34 c-32 32 -34 39 -34 98 0 136 56 263
161 369 68 69 170 128 255 148 54 12 209 13 264 0z m-130 -869 c269 0 500 4
518 9 l32 10 0 -252 c0 -280 -1 -286 -66 -313 -49 -21 -919 -21 -968 0 -65 27
-66 33 -66 313 l0 252 32 -10 c18 -5 249 -9 518 -9z"/>
<path d="M7621 6026 c-87 -48 -57 -190 44 -202 112 -14 167 126 77 196 -29 23
-85 26 -121 6z"/>
<path d="M8282 6024 c-27 -19 -52 -65 -52 -96 0 -35 34 -83 69 -97 95 -40 183
58 139 154 -23 50 -109 72 -156 39z"/>
<path d="M3735 4321 c-22 -4 -46 -10 -54 -15 -21 -13 -41 -71 -41 -119 0 -101
36 -137 139 -137 111 0 143 30 144 133 0 34 -3 72 -7 85 -14 41 -98 66 -181
53z"/>
<path d="M6691 4319 c-54 -10 -68 -22 -81 -68 -22 -80 -4 -163 40 -186 33 -17
135 -20 174 -5 35 13 56 49 62 106 7 64 -13 125 -46 140 -37 17 -99 23 -149
13z"/>
<path d="M1279 4265 c-15 -8 -32 -29 -38 -46 -8 -22 -11 -287 -11 -884 0 -743
2 -854 15 -865 21 -18 133 -24 183 -11 l42 12 0 801 c0 441 3 798 7 795 3 -4
143 -361 309 -794 167 -433 311 -794 319 -803 23 -22 176 -21 201 2 11 9 163
374 339 812 l320 795 3 -798 c2 -728 4 -800 19 -812 22 -19 184 -19 206 0 16
12 17 86 17 872 0 644 -3 865 -12 884 -20 44 -55 55 -178 55 -128 0 -163 -11
-206 -63 -19 -23 -128 -277 -309 -716 -154 -374 -283 -681 -286 -681 -3 0
-127 307 -275 683 -293 743 -292 742 -379 766 -59 16 -254 14 -286 -4z"/>
<path d="M4825 3803 c-77 -28 -140 -69 -216 -140 l-69 -65 0 85 c0 111 -6 117
-109 117 -46 0 -82 -5 -89 -12 -9 -9 -12 -170 -12 -665 l0 -652 43 -12 c49
-13 151 -6 172 11 13 11 15 80 15 465 l0 452 88 89 c105 108 168 144 252 144
80 0 145 -35 188 -100 57 -87 62 -133 62 -611 0 -362 2 -428 15 -439 21 -17
123 -24 173 -11 l42 12 0 455 0 455 86 89 c106 109 177 150 263 150 76 -1 137
-32 178 -94 56 -83 56 -85 62 -583 4 -318 9 -465 17 -473 15 -15 112 -24 158
-16 69 13 66 -4 66 419 0 417 -9 570 -40 668 -55 179 -196 279 -391 279 -135
0 -238 -50 -372 -178 -37 -36 -69 -63 -71 -61 -2 2 -13 22 -24 44 -31 63 -97
124 -170 158 -56 26 -79 31 -166 34 -79 3 -112 0 -151 -14z"/>
<path d="M7636 3804 c-161 -39 -276 -133 -350 -286 -64 -133 -81 -219 -80
-408 0 -124 5 -173 22 -242 64 -257 212 -398 454 -428 146 -18 301 14 421 87
75 45 97 81 97 155 0 67 -13 108 -36 108 -9 0 -56 -27 -105 -60 -103 -68 -171
-92 -269 -92 -138 0 -225 53 -288 178 -90 177 -73 531 34 685 110 160 338 166
549 15 56 -41 80 -45 95 -17 15 29 12 138 -4 170 -26 50 -147 117 -254 140
-71 15 -214 13 -286 -5z"/>
<path d="M3688 3789 c-17 -9 -18 -52 -18 -664 l0 -653 36 -12 c44 -15 156 -9
178 9 14 12 16 79 16 662 0 631 -1 649 -19 659 -25 13 -171 13 -193 -1z"/>
<path d="M6648 3789 c-17 -9 -18 -51 -18 -658 0 -591 1 -650 17 -662 11 -9 43
-14 98 -14 55 0 87 5 98 14 16 12 17 71 17 662 0 631 -1 649 -19 659 -25 13
-171 13 -193 -1z"/>
</g>
</svg>
